<mxfile host="app.diagrams.net" modified="2023-12-11T06:32:22.971Z" agent="Mozilla/5.0 (Windows NT 10.0; Win64; x64) AppleWebKit/537.36 (KHTML, like Gecko) Chrome/120.0.0.0 Safari/537.36" etag="anLT2XwrVD37IGebJvzX" version="22.1.7" type="github">
  <diagram name="Page-1" id="bErIpLcqT6p6ZsRXg3px">
    <mxGraphModel dx="2261" dy="790" grid="1" gridSize="10" guides="1" tooltips="1" connect="1" arrows="1" fold="1" page="1" pageScale="1" pageWidth="827" pageHeight="1169" math="0" shadow="0">
      <root>
        <mxCell id="0" />
        <mxCell id="1" parent="0" />
        <mxCell id="CYkVxYSOFUk-lbgFqgo4-1" value="Actor" style="shape=umlActor;verticalLabelPosition=bottom;verticalAlign=top;html=1;outlineConnect=0;" vertex="1" parent="1">
          <mxGeometry x="339" y="130" width="150" height="260" as="geometry" />
        </mxCell>
        <mxCell id="CYkVxYSOFUk-lbgFqgo4-2" value="로그인" style="ellipse;whiteSpace=wrap;html=1;" vertex="1" parent="1">
          <mxGeometry x="70" y="360" width="120" height="80" as="geometry" />
        </mxCell>
        <mxCell id="CYkVxYSOFUk-lbgFqgo4-3" value="분리수거 검색" style="ellipse;whiteSpace=wrap;html=1;" vertex="1" parent="1">
          <mxGeometry x="660" y="505" width="120" height="80" as="geometry" />
        </mxCell>
        <mxCell id="CYkVxYSOFUk-lbgFqgo4-4" value="카테고리 선택" style="ellipse;whiteSpace=wrap;html=1;" vertex="1" parent="1">
          <mxGeometry x="220" y="630" width="120" height="80" as="geometry" />
        </mxCell>
        <mxCell id="CYkVxYSOFUk-lbgFqgo4-5" value="회원 정보 수정" style="ellipse;whiteSpace=wrap;html=1;" vertex="1" parent="1">
          <mxGeometry x="720" y="290" width="120" height="80" as="geometry" />
        </mxCell>
        <mxCell id="CYkVxYSOFUk-lbgFqgo4-6" value="주변 쓰레기장 찾기" style="ellipse;whiteSpace=wrap;html=1;" vertex="1" parent="1">
          <mxGeometry x="320" y="760" width="120" height="80" as="geometry" />
        </mxCell>
        <mxCell id="CYkVxYSOFUk-lbgFqgo4-7" value="이미지 촬영" style="ellipse;whiteSpace=wrap;html=1;" vertex="1" parent="1">
          <mxGeometry x="-60" y="330" width="120" height="80" as="geometry" />
        </mxCell>
        <mxCell id="CYkVxYSOFUk-lbgFqgo4-9" value="회원가입" style="ellipse;whiteSpace=wrap;html=1;" vertex="1" parent="1">
          <mxGeometry x="30" y="480" width="120" height="80" as="geometry" />
        </mxCell>
        <mxCell id="CYkVxYSOFUk-lbgFqgo4-10" value="많이 검색하는 &lt;br&gt;분리방법" style="ellipse;whiteSpace=wrap;html=1;" vertex="1" parent="1">
          <mxGeometry x="100" y="580" width="120" height="80" as="geometry" />
        </mxCell>
        <mxCell id="CYkVxYSOFUk-lbgFqgo4-12" value="오늘의 퀴즈" style="ellipse;whiteSpace=wrap;html=1;" vertex="1" parent="1">
          <mxGeometry x="450" y="700" width="120" height="80" as="geometry" />
        </mxCell>
        <mxCell id="CYkVxYSOFUk-lbgFqgo4-13" value="출석체크" style="ellipse;whiteSpace=wrap;html=1;" vertex="1" parent="1">
          <mxGeometry x="700" y="390" width="120" height="80" as="geometry" />
        </mxCell>
        <mxCell id="CYkVxYSOFUk-lbgFqgo4-14" value="불법투기 신고" style="ellipse;whiteSpace=wrap;html=1;" vertex="1" parent="1">
          <mxGeometry x="600" y="610" width="120" height="80" as="geometry" />
        </mxCell>
        <mxCell id="CYkVxYSOFUk-lbgFqgo4-16" value="" style="endArrow=none;html=1;rounded=0;entryX=0;entryY=1;entryDx=0;entryDy=0;entryPerimeter=0;" edge="1" parent="1" source="CYkVxYSOFUk-lbgFqgo4-9" target="CYkVxYSOFUk-lbgFqgo4-1">
          <mxGeometry width="50" height="50" relative="1" as="geometry">
            <mxPoint x="390" y="530" as="sourcePoint" />
            <mxPoint x="440" y="480" as="targetPoint" />
          </mxGeometry>
        </mxCell>
        <mxCell id="CYkVxYSOFUk-lbgFqgo4-17" value="" style="endArrow=none;html=1;rounded=0;exitX=0.667;exitY=0;exitDx=0;exitDy=0;exitPerimeter=0;entryX=0;entryY=1;entryDx=0;entryDy=0;entryPerimeter=0;" edge="1" parent="1" source="CYkVxYSOFUk-lbgFqgo4-10" target="CYkVxYSOFUk-lbgFqgo4-1">
          <mxGeometry width="50" height="50" relative="1" as="geometry">
            <mxPoint x="390" y="530" as="sourcePoint" />
            <mxPoint x="440" y="480" as="targetPoint" />
          </mxGeometry>
        </mxCell>
        <mxCell id="CYkVxYSOFUk-lbgFqgo4-18" value="" style="endArrow=none;html=1;rounded=0;exitX=1;exitY=0;exitDx=0;exitDy=0;" edge="1" parent="1" source="CYkVxYSOFUk-lbgFqgo4-7" target="CYkVxYSOFUk-lbgFqgo4-1">
          <mxGeometry width="50" height="50" relative="1" as="geometry">
            <mxPoint x="390" y="530" as="sourcePoint" />
            <mxPoint x="210" y="290" as="targetPoint" />
          </mxGeometry>
        </mxCell>
        <mxCell id="CYkVxYSOFUk-lbgFqgo4-19" value="" style="endArrow=none;html=1;rounded=0;exitX=1;exitY=0;exitDx=0;exitDy=0;" edge="1" parent="1" source="CYkVxYSOFUk-lbgFqgo4-2" target="CYkVxYSOFUk-lbgFqgo4-1">
          <mxGeometry width="50" height="50" relative="1" as="geometry">
            <mxPoint x="200" y="330" as="sourcePoint" />
            <mxPoint x="250" y="280" as="targetPoint" />
          </mxGeometry>
        </mxCell>
        <mxCell id="CYkVxYSOFUk-lbgFqgo4-20" value="" style="endArrow=none;html=1;rounded=0;exitX=0;exitY=0;exitDx=0;exitDy=0;" edge="1" parent="1" source="CYkVxYSOFUk-lbgFqgo4-3" target="CYkVxYSOFUk-lbgFqgo4-1">
          <mxGeometry width="50" height="50" relative="1" as="geometry">
            <mxPoint x="190" y="590" as="sourcePoint" />
            <mxPoint x="349" y="400" as="targetPoint" />
          </mxGeometry>
        </mxCell>
        <mxCell id="CYkVxYSOFUk-lbgFqgo4-21" value="" style="endArrow=none;html=1;rounded=0;exitX=0.5;exitY=0;exitDx=0;exitDy=0;" edge="1" parent="1" source="CYkVxYSOFUk-lbgFqgo4-14">
          <mxGeometry width="50" height="50" relative="1" as="geometry">
            <mxPoint x="200" y="600" as="sourcePoint" />
            <mxPoint x="490" y="390" as="targetPoint" />
          </mxGeometry>
        </mxCell>
        <mxCell id="CYkVxYSOFUk-lbgFqgo4-22" value="" style="endArrow=none;html=1;rounded=0;exitX=0.5;exitY=0;exitDx=0;exitDy=0;" edge="1" parent="1" source="CYkVxYSOFUk-lbgFqgo4-12" target="CYkVxYSOFUk-lbgFqgo4-1">
          <mxGeometry width="50" height="50" relative="1" as="geometry">
            <mxPoint x="210" y="610" as="sourcePoint" />
            <mxPoint x="369" y="420" as="targetPoint" />
          </mxGeometry>
        </mxCell>
        <mxCell id="CYkVxYSOFUk-lbgFqgo4-23" value="" style="endArrow=none;html=1;rounded=0;exitX=0.5;exitY=0;exitDx=0;exitDy=0;" edge="1" parent="1" source="CYkVxYSOFUk-lbgFqgo4-6">
          <mxGeometry width="50" height="50" relative="1" as="geometry">
            <mxPoint x="220" y="620" as="sourcePoint" />
            <mxPoint x="410" y="390" as="targetPoint" />
          </mxGeometry>
        </mxCell>
        <mxCell id="CYkVxYSOFUk-lbgFqgo4-24" value="" style="endArrow=none;html=1;rounded=0;exitX=0.5;exitY=0;exitDx=0;exitDy=0;" edge="1" parent="1" source="CYkVxYSOFUk-lbgFqgo4-4">
          <mxGeometry width="50" height="50" relative="1" as="geometry">
            <mxPoint x="230" y="630" as="sourcePoint" />
            <mxPoint x="380" y="400" as="targetPoint" />
          </mxGeometry>
        </mxCell>
        <mxCell id="CYkVxYSOFUk-lbgFqgo4-26" value="" style="endArrow=none;html=1;rounded=0;" edge="1" parent="1" source="CYkVxYSOFUk-lbgFqgo4-5" target="CYkVxYSOFUk-lbgFqgo4-1">
          <mxGeometry width="50" height="50" relative="1" as="geometry">
            <mxPoint x="709" y="264" as="sourcePoint" />
            <mxPoint x="520" y="80" as="targetPoint" />
          </mxGeometry>
        </mxCell>
        <mxCell id="CYkVxYSOFUk-lbgFqgo4-27" value="" style="endArrow=none;html=1;rounded=0;" edge="1" parent="1" source="CYkVxYSOFUk-lbgFqgo4-13" target="CYkVxYSOFUk-lbgFqgo4-1">
          <mxGeometry width="50" height="50" relative="1" as="geometry">
            <mxPoint x="739" y="474" as="sourcePoint" />
            <mxPoint x="550" y="290" as="targetPoint" />
          </mxGeometry>
        </mxCell>
      </root>
    </mxGraphModel>
  </diagram>
</mxfile>
